<mxfile host="app.diagrams.net" modified="2024-05-17T02:57:19.317Z" agent="Mozilla/5.0 (Macintosh; Intel Mac OS X 10_15_7) AppleWebKit/537.36 (KHTML, like Gecko) Chrome/124.0.0.0 Safari/537.36" version="24.4.3" etag="x2FwdKpquGdJL4y9A13G" type="github">
  <diagram name="페이지-1" id="XVIkxtGA4I8_LyoMtFQ-">
    <mxGraphModel>
      <root>
        <mxCell id="0" />
        <mxCell id="1" parent="0" />
      </root>
    </mxGraphModel>
  </diagram>
</mxfile>
